<svg preserveAspectRatio="none" width="100%" height="100%" overflow="visible" style="display: block;" viewBox="0 0 180 36" fill="none" xmlns="http://www.w3.org/2000/svg">
<g id="Group">
<path id="Vector" d="M8.18182 18L4.12711 22.032L0 18L4.12711 13.896L8.18182 18ZM18.1014 8.136L25.1247 15.12L29.2518 11.016L18.1014 0L7.02333 11.016L11.1504 15.12L18.1014 8.136ZM32.0756 13.896L28.0209 18L32.148 22.104L36.2027 18L32.0756 13.896ZM18.1014 27.864L11.078 20.88L6.95093 24.984L18.1014 36L29.1794 24.984L25.1247 20.88L18.1014 27.864ZM18.1014 22.032L22.2285 17.928L18.1014 13.896L13.9743 18L18.1014 22.032ZM61.255 22.464C61.255 19.728 59.8069 18.432 57.5623 17.568C59.0105 16.776 60.1689 15.552 60.1689 13.32V13.248C60.1689 10.152 57.6348 8.136 53.6525 8.136H44.3846V27.864H53.7973C58.2864 27.864 61.255 26.064 61.255 22.464ZM55.7522 14.04C55.7522 15.552 54.5213 16.128 52.6388 16.128H48.5841V11.952H52.9284C54.7385 11.952 55.7522 12.672 55.7522 14.04ZM56.9107 21.888C56.9107 23.328 55.7522 24.048 53.8697 24.048H48.6565V19.728H53.7249C55.897 19.728 56.9107 20.52 56.9107 21.888ZM70.3781 27.864V8.136H65.9614V27.864H70.3781ZM93.8375 27.864V8.136H89.4932V20.304L80.2253 8.136H76.1706V27.864H80.5149V15.336L90.1448 27.864H93.8375ZM118.021 27.864L109.477 7.992H105.422L96.8785 27.864H101.368L103.178 23.4H111.577L113.387 27.864H118.021ZM110.056 19.584H104.771L107.45 13.176L110.056 19.584ZM138.874 27.864V8.136H134.529V20.304L125.261 8.136H121.207V27.864H125.551V15.336L135.181 27.864H138.874ZM161.392 24.696L158.568 21.888C156.975 23.328 155.599 24.192 153.355 24.192C149.952 24.192 147.562 21.384 147.562 18V17.928C147.562 14.544 149.952 11.808 153.355 11.808C155.31 11.808 156.903 12.672 158.423 14.04L161.247 10.872C159.437 9.072 157.192 7.848 153.427 7.848C147.345 7.848 143.073 12.456 143.073 18.072V18C143.073 23.688 147.418 28.152 153.282 28.152C157.047 28.224 159.364 26.856 161.392 24.696ZM180 27.864V23.976H169.212V19.8H178.552V15.912H169.212V11.88H179.855V7.992H164.867V27.72L180 27.864Z" fill="var(--fill-0, #F5F5F5)"/>
</g>
</svg>
