<svg preserveAspectRatio="none" width="100%" height="100%" overflow="visible" style="display: block;" viewBox="0 0 107.996 36.0161" fill="none" xmlns="http://www.w3.org/2000/svg">
<g id="Bybit_x0020_Logo.cdr">
<path id="Vector" d="M76.9689 27.7678V0H82.5493V27.7678H76.9689Z" fill="var(--fill-0, #F5F5F5)"/>
<path id="Vector_2" d="M11.9579 36.016H0V8.24817H11.4796C17.0599 8.24817 20.3045 11.2874 20.3045 16.0496C20.3045 19.1287 18.2159 21.123 16.7729 21.7851C18.4949 22.5668 20.7031 24.3217 20.7031 28.023C20.7031 33.2081 17.052 36.016 11.9579 36.016ZM11.0331 13.0822H5.57238V19.4797H11.0331C13.4008 19.4797 14.7241 18.1954 14.7241 16.281C14.7241 14.3745 13.4008 13.0822 11.0331 13.0822ZM11.3919 24.3536H5.57238V31.1819H11.3919C13.919 31.1819 15.1227 29.6264 15.1227 27.7518C15.1227 25.8772 13.919 24.3616 11.3919 24.3616V24.3536Z" fill="var(--fill-0, #F5F5F5)"/>
<path id="Vector_3" d="M37.7232 24.6249V36.016H32.1827V24.6249L23.5969 8.24817H29.6556L34.9888 19.4398L40.2503 8.24817H46.3089L37.7232 24.6249Z" fill="var(--fill-0, #F5F5F5)"/>
<path id="Vector_4" d="M62.1252 36.016H50.1673V8.24817H61.6469C67.2273 8.24817 70.4718 11.2874 70.4718 16.0496C70.4718 19.1287 68.3832 21.123 66.9403 21.7851C68.6622 22.5668 70.8704 24.3217 70.8704 28.023C70.8704 33.2081 67.2193 36.016 62.1252 36.016ZM61.2005 13.0822H55.7397V19.4797H61.2005C63.5681 19.4797 64.8915 18.1954 64.8915 16.281C64.8915 14.3745 63.5681 13.0822 61.2005 13.0822ZM61.5592 24.3536H55.7397V31.1819H61.5592C64.0863 31.1819 65.2901 29.6264 65.2901 27.7518C65.2901 25.8772 64.0863 24.3616 61.5592 24.3616V24.3536Z" fill="var(--fill-0, #F5F5F5)"/>
<path id="Vector_5" d="M100.526 13.0822V36.016H94.9536V13.0822H87.4839V8.24817H107.996V13.0822H100.526Z" fill="var(--fill-0, #F5F5F5)"/>
</g>
</svg>
