<svg preserveAspectRatio="none" width="100%" height="100%" overflow="visible" style="display: block;" viewBox="0 0 107 30" fill="none" xmlns="http://www.w3.org/2000/svg">
<g id="g886">
<path id="path839" d="M31.381 0H0.713208C0.524052 0 0.342647 0.0702349 0.208893 0.195255C0.0751406 0.320274 0 0.489838 0 0.666643V29.3322C0 29.509 0.0751406 29.6787 0.208893 29.8038C0.342647 29.9286 0.524052 29.9988 0.713208 29.9988H31.381C31.5703 29.9988 31.7516 29.9286 31.8855 29.8038C32.0192 29.6787 32.0944 29.509 32.0944 29.3322V0.666643C32.0944 0.489838 32.0192 0.320274 31.8855 0.195255C31.7516 0.0702349 31.5703 0 31.381 0ZM21.3962 19.3327C21.3962 19.5095 21.3211 19.679 21.1873 19.804C21.0536 19.929 20.8722 19.9993 20.683 19.9993H11.4113C11.2222 19.9993 11.0407 19.929 10.907 19.804C10.7732 19.679 10.6981 19.5095 10.6981 19.3327V10.6663C10.6981 10.4895 10.7732 10.3199 10.907 10.1949C11.0407 10.0699 11.2222 9.99964 11.4113 9.99964H20.683C20.8722 9.99964 21.0536 10.0699 21.1873 10.1949C21.3211 10.3199 21.3962 10.4895 21.3962 10.6663V19.3327Z" fill="var(--fill-0, #F5F5F5)"/>
<path id="path841" d="M95.5829 10.0009H86.3111C85.9174 10.0009 85.5979 10.2993 85.5979 10.6675V19.3339C85.5979 19.702 85.9174 20.0005 86.3111 20.0005H95.5829C95.9769 20.0005 96.2961 19.702 96.2961 19.3339V10.6675C96.2961 10.2993 95.9769 10.0009 95.5829 10.0009Z" fill="var(--fill-0, #F5F5F5)"/>
<path id="path843" d="M84.8872 0.000483361H75.6156C75.2217 0.000483361 74.9024 0.29895 74.9024 0.667126V9.33349C74.9024 9.70166 75.2217 10.0001 75.6156 10.0001H84.8872C85.2811 10.0001 85.6006 9.70166 85.6006 9.33349V0.667126C85.6006 0.29895 85.2811 0.000483361 84.8872 0.000483361Z" fill="var(--fill-0, #F5F5F5)"/>
<path id="path845" d="M106.287 0.000483361H97.015C96.6213 0.000483361 96.3018 0.29895 96.3018 0.667126V9.33349C96.3018 9.70166 96.6213 10.0001 97.015 10.0001H106.287C106.681 10.0001 107 9.70166 107 9.33349V0.667126C107 0.29895 106.681 0.000483361 106.287 0.000483361Z" fill="var(--fill-0, #F5F5F5)"/>
<path id="path847" d="M84.8872 20.0003H75.6156C75.2217 20.0003 74.9024 20.2987 74.9024 20.6669V29.3334C74.9024 29.7014 75.2217 30 75.6156 30H84.8872C85.2811 30 85.6006 29.7014 85.6006 29.3334V20.6669C85.6006 20.2987 85.2811 20.0003 84.8872 20.0003Z" fill="var(--fill-0, #F5F5F5)"/>
<path id="path849" d="M106.287 20.0003H97.015C96.6213 20.0003 96.3018 20.2987 96.3018 20.6669V29.3334C96.3018 29.7014 96.6213 30 97.015 30H106.287C106.681 30 107 29.7014 107 29.3334V20.6669C107 20.2987 106.681 20.0003 106.287 20.0003Z" fill="var(--fill-0, #F5F5F5)"/>
<path id="path851" d="M68.8273 0.000483361H59.5557C59.1617 0.000483361 58.8422 0.29895 58.8422 0.667126V9.33349C58.8422 9.70166 59.1617 10.0001 59.5557 10.0001H68.8273C69.2212 10.0001 69.5404 9.70166 69.5404 9.33349V0.667126C69.5404 0.29895 69.2212 0.000483361 68.8273 0.000483361Z" fill="var(--fill-0, #F5F5F5)"/>
<path id="path853" d="M68.8273 20.0003H59.5557C59.1617 20.0003 58.8422 20.2987 58.8422 20.6669V29.3334C58.8422 29.7014 59.1617 30 59.5557 30H68.8273C69.2212 30 69.5404 29.7014 69.5404 29.3334V20.6669C69.5404 20.2987 69.2212 20.0003 68.8273 20.0003Z" fill="var(--fill-0, #F5F5F5)"/>
<path id="path855" d="M58.8392 10.6588C58.8392 10.482 58.764 10.3124 58.6303 10.1874C58.4966 10.0624 58.3152 9.99214 58.1261 9.99214H48.141V0.666643C48.141 0.489838 48.0658 0.320274 47.9321 0.195255C47.7985 0.0702349 47.617 0 47.4279 0H38.1563C37.9669 0 37.7857 0.0702349 37.6518 0.195255C37.5181 0.320274 37.4429 0.489838 37.4429 0.666643V29.3173C37.4429 29.4941 37.5181 29.6636 37.6518 29.7887C37.7857 29.9137 37.9669 29.9839 38.1563 29.9839H47.4279C47.617 29.9839 47.7985 29.9137 47.9321 29.7887C48.0658 29.6636 48.141 29.4941 48.141 29.3173V19.9918H58.1261C58.3152 19.9918 58.4966 19.9215 58.6303 19.7965C58.764 19.6715 58.8392 19.5019 58.8392 19.3251V10.6588Z" fill="var(--fill-0, #F5F5F5)"/>
</g>
</svg>
